<svg preserveAspectRatio="none" overflow="visible" style="display: block;" width="18" height="18" viewBox="0 0 18 18" fill="none" xmlns="http://www.w3.org/2000/svg">
<path id="Vector" d="M10.2895 0.894425L11.9087 5.27686C12.0444 5.65499 12.345 5.94586 12.7231 6.0913L17.1056 7.71048C18.2981 8.15648 18.2981 9.84352 17.1056 10.2895L12.7231 11.9087C12.345 12.0444 12.0541 12.345 11.9087 12.7231L10.2895 17.1056C9.84352 18.2981 8.15648 18.2981 7.71048 17.1056L6.0913 12.7231C5.95556 12.345 5.655 12.0541 5.27687 11.9087L0.894425 10.2895C-0.298142 9.84352 -0.298142 8.15648 0.894425 7.71048L5.27687 6.0913C5.655 5.95556 5.94587 5.65499 6.0913 5.27686L7.71048 0.894425C8.15648 -0.298142 9.84352 -0.298142 10.2895 0.894425Z" fill="#4835EB"/>
</svg>
